Devon Ke Dev... Mahadev Episode of 3th August 2012
IMDB - http://www.imdb.com/title/tt2147999/


Provided by DesiRipper
Brought To You By JamMafia{TMRG} 

Details:.

Format                                   : AVI
Format/Info                              : Audio Video Interleave
File size                                : 58.8 MiB
Duration                                 : 23mn 20s
Overall bit rate                         : 353 Kbps

Video
ID                                       : 0
Format                                   : MPEG-4 Visual
Format profile                           : Advanced Simple@L5
Format settings, BVOP                    : 2
Format settings, QPel                    : No
Format settings, GMC                     : No warppoints
Format settings, Matrix                  : Default (H.263)
Codec ID                                 : XVID
Codec ID/Hint                            : XviD
Duration                                 : 23mn 20s
Bit rate                                 : 218 Kbps
Width                                    : 320 pixels
Height                                   : 240 pixels
Display aspect ratio                     : 4:3
Frame rate                               : 25.000 fps
Color space                              : YUV
Chroma subsampling                       : 4:2:0
Bit depth                                : 8 bits
Scan type                                : Progressive
Compression mode                         : Lossy
Bits/(Pixel*Frame)                       : 0.114
Stream size                              : 36.5 MiB (62%)
Writing library                          : XviD 1.2.1 (UTC 2008-12-04)

Audio
ID                                       : 1
Format                                   : MPEG Audio
Format version                           : Version 1
Format profile                           : Layer 3
Mode                                     : Joint stereo
Codec ID                                 : 55
Codec ID/Hint                            : MP3
Duration                                 : 23mn 19s
Bit rate mode                            : Constant
Bit rate                                 : 128 Kbps
Channel(s)                               : 2 channels
Sampling rate                            : 44.1 KHz
Compression mode                         : Lossy
Stream size                              : 21.4 MiB (36%)
Alignment                                : Aligned on interleaves
Interleave, duration                     : 160 ms (4.00 video frames)
Interleave, preload duration             : 208 ms
Title                                    : MahaDev 3rd Aug Eng Subs.wmv_track_1__audio
Writing library                          : LAME3.99r
Encoding settings                        : -m j -V 4 -q 2 -lowpass 17 -b 128

ScreenShots:.
 
http://img689.imageshack.us/img689/4267/mahadev3rdaugengsubsjam.jpg

Note This Content is Recorded From T.V so This Rip Contains Ad-Break's... 

Greetz:.[b]
It takes 5 hours to encode

And Just 5 seconds to say thank you............

Movie Encoded my JamMafia

JamMafia FB Page: